# xmcd
# 
# Track frame offsets:
#     150
#     14901
#     29258
#     45660
#     60616
#     73798
# 
# Disc length: 1189
# 
# Revision: 1
# Processed by: cddbd v1.5.2PL0 Copyright (c) Steve Scherf et al.
# Submitted via: fre:ac v1.0.27
# 
DISCID=5204a306
DTITLE=TWICE - SIGNAL
DYEAR=2017
DGENRE=K-POP
TTITLE0=SIGNAL
TTITLE1=하루에 세번
TTITLE2=ONLY 너
TTITLE3=HOLD ME TIGHT
TTITLE4=EYE EYE EYES
TTITLE5=SOMEONE LIKE ME
EXTD=
EXTT0=
EXTT1=
EXTT2=
EXTT3=
EXTT4=
EXTT5=
PLAYORDER=
